# Blender v2.80 (sub 75) OBJ File: ''
# www.blender.org
mtllib fondo.mtl
o Cube
v -2.000000 2.000000 1.000000
v -2.000000 0.000000 1.000000
v -2.000000 2.000000 -1.000000
v -2.000000 0.000000 -1.000000
v 2.000000 2.000000 1.000000
v 2.000000 0.000000 1.000000
v 2.000000 2.000000 -1.000000
v 2.000000 0.000000 -1.000000
vt 0.166634 0.953935
vt 0.166634 0.999296
vt 0.823641 0.999296
vt 0.823641 0.953935
vt 0.182715 0.000149
vt 0.769929 0.000149
vt 0.769929 0.999716
vt 0.182715 0.999716
vt 1.000297 -0.000768
vt 0.737071 -0.000768
vt 0.737071 1.000643
vt 1.000297 1.000643
vt 0.192394 0.000907
vt 0.192394 0.051901
vt 0.720794 0.051901
vt 0.720794 0.000907
vt 0.000752 0.000356
vt 0.249634 0.000356
vt 0.249634 1.000759
vt 0.000752 1.000759
vn 0.0000 -1.0000 0.0000
vn 0.0000 0.0000 1.0000
vn -1.0000 0.0000 0.0000
vn 0.0000 1.0000 0.0000
vn 1.0000 0.0000 -0.0000
usemtl Material
s off
f 1/1/1 3/2/1 7/3/1 5/4/1
f 4/5/2 8/6/2 7/7/2 3/8/2
f 8/9/3 6/10/3 5/11/3 7/12/3
f 6/13/4 8/14/4 4/15/4 2/16/4
f 2/17/5 4/18/5 3/19/5 1/20/5
